<svg xmlns="http://www.w3.org/2000/svg" viewBox="0 0 64 64">
  <defs>
    <linearGradient id="g" x1="14" y1="10" x2="51" y2="55" gradientUnits="userSpaceOnUse">
      <stop stop-color="#b7d6a0" />
      <stop offset="1" stop-color="#4e7346" />
    </linearGradient>
  </defs>
  <rect width="64" height="64" rx="16" fill="#0a0d0b" />
  <path d="M32 9 49 20l-5 27-12 8-12-8-5-27L32 9Z" fill="url(#g)" opacity=".18" />
  <path d="M32 9 49 20l-5 27-12 8-12-8-5-27L32 9Z" fill="none" stroke="url(#g)" stroke-width="2" />
  <path d="m15 20 17 9 17-9M20 47l12-18 12 18M32 9v20" fill="none" stroke="#9dc183" stroke-width="1.5" opacity=".72" />
  <path d="M10 28v8m0-4h5M54 28v8m-5-4h5" stroke="#c9a227" stroke-width="2" stroke-linecap="round" />
</svg>
